<svg version="1.1" viewBox="0 0 96 96" xmlns="http://www.w3.org/2000/svg" xmlns:xlink="http://www.w3.org/1999/xlink" id="Icons_Contract_LTR" overflow="hidden"><g><path d=" M 23 14 L 73 14 L 73 82 L 23 82 L 23 14 Z M 17 88 L 79 88 L 79 8 L 17 8 L 17 88 Z" stroke="none" stroke-width="1" stroke-linecap="butt" fill="#8000FF" fill-opacity="1"/><rect x="49" y="66" width="18" height="4" stroke="none" stroke-width="1" stroke-linecap="butt" fill="#8000FF" fill-opacity="1"/><rect x="29" y="22" width="38" height="4" stroke="none" stroke-width="1" stroke-linecap="butt" fill="#8000FF" fill-opacity="1"/><rect x="29" y="30" width="38" height="4" stroke="none" stroke-width="1" stroke-linecap="butt" fill="#8000FF" fill-opacity="1"/><rect x="29" y="38" width="38" height="4" stroke="none" stroke-width="1" stroke-linecap="butt" fill="#8000FF" fill-opacity="1"/><rect x="29" y="46" width="19" height="4" stroke="none" stroke-width="1" stroke-linecap="butt" fill="#8000FF" fill-opacity="1"/><path d=" M 32.1 75 L 36 71.1 L 39.9 75 L 43 71.9 L 39.1 68 L 43 64.1 L 39.9 61 L 36 64.9 L 32.1 61 L 29 64.1 L 32.9 68 L 29 71.9 Z" stroke="none" stroke-width="1" stroke-linecap="butt" fill="#8000FF" fill-opacity="1"/></g></svg>