<?xml version="1.0" standalone="no"?>
<!DOCTYPE svg PUBLIC "-//W3C//DTD SVG 20010904//EN"
 "http://www.w3.org/TR/2001/REC-SVG-20010904/DTD/svg10.dtd">
<svg version="1.0" xmlns="http://www.w3.org/2000/svg"
 width="400.000000pt" height="400.000000pt" viewBox="0 0 400.000000 400.000000"
 preserveAspectRatio="xMidYMid meet">
<g transform="translate(0.000000,400.000000) scale(0.100000,-0.100000)"
fill="0" stroke="none">
<path d="M1115 3413 c-60 -25 -113 -48 -117 -51 -3 -4 15 -61 42 -127 26 -66
47 -121 45 -123 -1 -2 -83 -36 -181 -77 -189 -79 -218 -99 -230 -160 -13 -69
59 -155 130 -155 17 0 111 33 208 74 171 70 177 72 186 52 5 -12 116 -283 247
-603 l238 -583 36 -5 c78 -13 169 -37 219 -60 28 -13 52 -19 52 -14 0 13 -750
1861 -759 1871 -3 4 -55 -14 -116 -39z"/>
<path d="M2612 2301 c-343 -142 -625 -261 -629 -264 -6 -7 407 -1007 417
-1007 8 0 1263 519 1268 525 3 3 -157 395 -389 953 -12 28 -27 52 -33 52 -6 0
-291 -117 -634 -259z"/>
<path d="M1480 1485 c-211 -58 -375 -226 -430 -441 -37 -144 -18 -305 52 -437
43 -81 164 -202 245 -245 127 -67 307 -90 438 -57 212 54 387 227 441 436 20
77 22 214 5 289 -19 80 -84 207 -136 267 -57 65 -173 144 -256 173 -84 29
-276 37 -359 15z m265 -418 c151 -103 110 -328 -67 -367 -94 -21 -176 17 -219
102 -38 74 -20 188 38 240 67 61 178 72 248 25z"/>
<path d="M3250 1207 c-19 -7 -218 -89 -442 -182 l-408 -168 0 -32 c0 -41 -33
-167 -59 -229 -12 -27 -20 -51 -18 -53 4 -3 981 403 1035 431 67 35 91 109 58
175 -29 55 -103 81 -166 58z"/>
</g>
</svg>
