<?xml version="1.0" standalone="no"?>
<!DOCTYPE svg PUBLIC "-//W3C//DTD SVG 20010904//EN"
 "http://www.w3.org/TR/2001/REC-SVG-20010904/DTD/svg10.dtd">
<svg version="1.0" xmlns="http://www.w3.org/2000/svg"
 width="188.000000pt" height="152.000000pt" viewBox="0 0 188.000000 152.000000"
 preserveAspectRatio="xMidYMid meet">

<g transform="translate(0.000000,152.000000) scale(0.100000,-0.100000)"
fill="0" stroke="none">
<path d="M650 1378 c-118 -38 -217 -72 -219 -73 -16 -16 63 -103 387 -429 205
-207 374 -376 376 -376 2 0 -60 197 -137 438 -76 240 -144 454 -149 475 -7 24
-16 37 -27 36 -9 0 -113 -32 -231 -71z"/>
<path d="M960 1443 c0 -4 64 -210 142 -456 99 -311 145 -443 150 -430 4 10 41
162 82 338 96 415 100 434 94 440 -3 3 -101 28 -219 55 -118 28 -222 53 -231
56 -10 3 -18 2 -18 -3z"/>
<path d="M1485 1287 c-8 -19 -195 -827 -195 -838 0 -9 233 209 494 462 l39 37
-167 176 c-92 96 -169 170 -171 163z"/>
<path d="M202 1107 l-173 -173 430 -435 429 -434 171 170 c94 93 171 174 171
180 0 6 -192 202 -428 438 l-427 427 -173 -173z m767 -662 c16 -8 34 -28 41
-46 12 -28 11 -36 -6 -68 -12 -23 -30 -38 -50 -44 -95 -27 -154 103 -71 154
38 23 49 23 86 4z"/>
</g>
</svg>
