<svg xmlns="http://www.w3.org/2000/svg" version="1.0" width="280.000000pt" height="280.000000pt" viewBox="0 0 280.000000 280.000000" preserveAspectRatio="xMidYMid meet">
<metadata>
Created by potrace 1.15, written by Peter Selinger 2001-2017
</metadata>
<g transform="translate(0.000000,280.000000) scale(0.100000,-0.100000)" fill="0" stroke="none">
<path d="M0 2135 l0 -665 660 0 660 0 0 665 0 665 -660 0 -660 0 0 -665z"/>
<path d="M1480 2135 l0 -665 660 0 660 0 0 665 0 665 -660 0 -660 0 0 -665z"/>
<path d="M0 660 l0 -660 660 0 660 0 0 660 0 660 -660 0 -660 0 0 -660z"/>
<path d="M1480 660 l0 -660 660 0 660 0 0 660 0 660 -660 0 -660 0 0 -660z"/>
</g>
</svg>