<?xml version="1.0" standalone="no"?>
<!DOCTYPE svg PUBLIC "-//W3C//DTD SVG 20010904//EN"
 "http://www.w3.org/TR/2001/REC-SVG-20010904/DTD/svg10.dtd">
<svg xmlns="http://www.w3.org/2000/svg" version="1.0" width="96.000000pt" height="96.000000pt" viewBox="0 0 96.000000 96.000000" preserveAspectRatio="xMidYMid meet">
<metadata>
Created by potrace 1.15, written by Peter Selinger 2001-2017
</metadata>
<g transform="translate(0.000000,96.000000) scale(0.100000,-0.100000)" fill="0" stroke="none">
<path d="M40 600 l0 -120 280 0 280 0 0 120 0 120 -280 0 -280 0 0 -120z"/>
<path d="M640 480 l0 -180 25 0 c18 0 25 5 25 19 0 33 48 71 92 71 44 0 88 -35 88 -70 0 -16 5 -21 23 -18 20 3 22 9 25 84 l3 81 -36 24 c-25 17 -39 38 -51 74 -27 81 -45 95 -126 95 l-68 0 0 -180z"/>
<path d="M40 370 l0 -70 35 0 c27 0 35 4 35 19 0 33 48 71 92 71 44 0 88 -35 88 -70 0 -19 6 -20 155 -20 l155 0 0 70 0 70 -280 0 -280 0 0 -70z"/>
<path d="M147 352 c-25 -28 -22 -87 5 -106 30 -22 81 -20 101 2 23 25 21 78 -3 102 -26 26 -81 26 -103 2z"/>
<path d="M727 352 c-25 -28 -22 -87 5 -106 30 -22 81 -20 101 2 23 25 21 78 -3 102 -26 26 -81 26 -103 2z"/>
</g>
</svg>