<svg version="1.1" viewBox="0 0 96 96" xmlns="http://www.w3.org/2000/svg" xmlns:xlink="http://www.w3.org/1999/xlink" id="Icons_Money" overflow="hidden"><path d=" M 86 71 L 83 74 L 14 74 L 10 70 L 10 50 L 14 46 L 83 46 L 86 49 L 86 71 Z M 4 40 L 4 80 L 92 80 L 92 40 L 4 40 Z" stroke="none" stroke-width="1" stroke-linecap="butt" fill="" fill-opacity="1"/><ellipse cx="48" cy="60" rx="8" ry="10" stroke="none" stroke-width="1" stroke-linecap="butt" fill="0" fill-opacity="1"/><circle cx="23" cy="60" r="3" stroke="none" stroke-width="1" stroke-linecap="butt" fill="0" fill-opacity="1"/><circle cx="73" cy="60" r="3" stroke="none" stroke-width="1" stroke-linecap="butt" fill="0" fill-opacity="1"/><path d=" M 65.9 20.7 L 67.4 24.5 L 73.4 23.3 L 69.2 12.8 L 15.4 34.8 L 46.2 28.7 Z" stroke="none" stroke-width="1" stroke-linecap="butt" fill="0" fill-opacity="1"/><path d=" M 60.7 36 L 76.5 32.9 L 77.2 36 L 83.3 36 L 81.3 25.8 L 30 36 Z" stroke="none" stroke-width="1" stroke-linecap="butt" fill="0" fill-opacity="1"/></svg>