<svg version="1.1" viewBox="0 0 96 96" xmlns="http://www.w3.org/2000/svg" xmlns:xlink="http://www.w3.org/1999/xlink" id="Icons_ShoppingBag" overflow="hidden"><path d=" M 68.3 83.2 L 71 40.6 L 73.8 77.7 L 68.3 83.2 Z M 62.1 86 L 22.1 86 L 25.6 30 L 30 30 L 30 38 C 30 39.1 30.9 40 32 40 C 33.1 40 34 39.1 34 38 L 34 30 L 54 30 L 54 38 C 54 39.1 54.9 40 56 40 C 57.1 40 58 39.1 58 38 L 58 30 L 65.6 30 L 62.1 86 Z M 34 20 C 34 15.4 37.1 11.6 41.3 10.4 C 39.8 12.6 39 15.2 39 18 L 39 24 L 34 24 L 34 20 Z M 46.6 10.3 C 50.9 11.4 54 15.3 54 20 L 54 24 L 43 24 L 43 18 C 43 14.9 44.4 12.2 46.6 10.3 Z M 53 8 C 58.5 8 63 12.5 63 18 L 63 24 L 58 24 L 58 20 C 58 15 55.4 10.6 51.4 8.1 C 51.9 8.1 52.5 8 53 8 Z M 76 27.8 C 75.9 25.7 74.1 24 72 24 L 67.7 24 C 69.7 24 71.4 25.5 71.7 27.4 C 71.4 25.5 69.8 24 67.7 24 L 67 24 L 67 18 C 67 10.3 60.7 4 53 4 C 50.3 4 47.8 4.8 45.7 6.1 C 45.1 6 44.6 6 44 6 C 36.3 6 30 12.3 30 20 L 30 24 L 23.8 24 C 21.7 24 19.9 25.6 19.8 27.8 L 16.1 87.8 C 16 90.1 17.8 92 20.1 92 L 64.1 92 L 66.4 92 C 67.5 92 68.6 91.5 69.3 90.7 L 78.8 81.3 C 79.6 80.5 80.1 79.3 80 78.2 L 76 27.8 Z" stroke="none" stroke-width="1" stroke-linecap="butt" fill="#8000FF" fill-opacity="1"/></svg>