<?xml version="1.0" standalone="no"?>
<!DOCTYPE svg PUBLIC "-//W3C//DTD SVG 20010904//EN"
 "http://www.w3.org/TR/2001/REC-SVG-20010904/DTD/svg10.dtd">
<svg version="1.0" xmlns="http://www.w3.org/2000/svg"
 width="965.000000pt" height="390.000000pt" viewBox="0 0 965.000000 390.000000"
 preserveAspectRatio="xMidYMid meet">
<metadata>
Created by potrace 1.15, written by Peter Selinger 2001-2017
</metadata>
<g transform="translate(0.000000,390.000000) scale(0.100000,-0.100000)"
fill="" stroke="none">
<path d="M5022 3878 c-15 -5 -40 -8 -57 -9 -86 -2 -115 -5 -115 -13 0 -4 -16
-6 -35 -4 -19 2 -35 0 -35 -5 0 -5 -11 -7 -25 -5 -14 3 -25 1 -25 -5 0 -5 -10
-7 -22 -4 -14 4 -27 0 -35 -11 -11 -13 -16 -14 -20 -4 -4 11 -7 10 -17 -1 -14
-17 -130 -52 -144 -43 -5 3 -13 -2 -16 -11 -6 -15 -8 -15 -16 -3 -8 12 -10 12
-10 -4 0 -12 -5 -16 -15 -12 -8 3 -15 1 -15 -5 0 -6 -6 -9 -14 -6 -8 3 -16 1
-18 -4 -2 -6 -16 -12 -31 -12 -15 -1 -27 -8 -27 -15 0 -7 -4 -11 -9 -7 -5 3
-12 1 -16 -5 -4 -6 -11 -8 -16 -5 -5 4 -9 2 -9 -4 0 -6 -7 -8 -15 -5 -8 4 -15
1 -15 -6 0 -6 -4 -8 -10 -5 -5 3 -10 2 -10 -3 0 -5 -28 -24 -62 -42 -35 -19
-86 -49 -115 -67 -29 -18 -57 -33 -63 -33 -5 0 -10 -5 -10 -12 0 -6 -3 -9 -6
-5 -4 3 -13 -1 -21 -9 -9 -8 -38 -30 -67 -49 -69 -46 -92 -63 -151 -108 -27
-20 -61 -46 -75 -56 -14 -11 -35 -28 -47 -38 -12 -10 -36 -29 -54 -43 -18 -14
-37 -30 -43 -35 -52 -48 -124 -104 -129 -98 -4 3 -7 0 -7 -8 0 -8 -14 -23 -30
-34 -16 -11 -30 -23 -30 -27 0 -5 -4 -8 -9 -8 -5 0 -24 -15 -43 -32 -56 -55
-129 -113 -139 -110 -5 1 -9 -6 -9 -15 0 -15 -2 -16 -10 -3 -8 13 -10 12 -10
-4 0 -20 -127 -153 -142 -148 -4 1 -8 -4 -8 -12 0 -17 -63 -66 -84 -66 -9 0
-16 -5 -16 -11 0 -5 -4 -8 -9 -5 -5 4 -11 1 -13 -4 -2 -6 -17 -12 -33 -13 -17
-1 -36 -8 -44 -15 -9 -9 -17 -10 -26 -2 -9 8 -14 6 -19 -5 -3 -9 -14 -15 -23
-14 -10 1 -26 -1 -35 -6 -10 -4 -25 -5 -33 -1 -8 3 -15 0 -15 -6 0 -6 -11 -8
-30 -5 -16 4 -32 3 -34 -2 -9 -14 -56 -20 -56 -7 0 8 -2 8 -8 0 -11 -17 -62
-27 -62 -12 0 10 -2 10 -9 0 -8 -13 -45 -21 -116 -27 -16 -1 -38 -5 -47 -10
-10 -4 -25 -4 -34 -1 -9 4 -23 1 -30 -5 -8 -6 -25 -8 -39 -5 -16 4 -25 2 -25
-5 0 -8 -12 -10 -35 -6 -19 3 -35 2 -35 -2 0 -10 -188 -44 -201 -36 -5 4 -16
1 -24 -5 -9 -7 -26 -9 -45 -5 -20 4 -30 3 -30 -5 0 -9 -11 -10 -36 -5 -24 4
-34 3 -29 -4 3 -7 -2 -11 -15 -11 -11 0 -77 -11 -147 -26 -69 -14 -132 -23
-139 -20 -8 3 -14 1 -14 -5 0 -7 -10 -9 -25 -5 -15 4 -25 2 -25 -4 0 -6 -8
-10 -18 -8 -11 2 -27 -3 -36 -11 -15 -13 -19 -13 -27 0 -7 12 -9 12 -9 -2 0
-11 -17 -20 -56 -28 -30 -7 -58 -10 -61 -7 -3 3 -12 -2 -19 -12 -11 -14 -13
-14 -14 -2 0 12 -3 12 -11 -2 -5 -10 -16 -15 -24 -12 -8 4 -15 1 -15 -6 0 -7
-7 -10 -15 -6 -8 3 -15 2 -15 -3 0 -4 -19 -14 -42 -20 -24 -7 -48 -17 -55 -23
-7 -5 -17 -7 -23 -3 -5 3 -10 1 -10 -5 0 -6 -4 -8 -10 -5 -5 3 -10 1 -10 -5 0
-7 -7 -10 -15 -6 -8 3 -15 2 -15 -3 0 -8 -82 -48 -88 -43 -1 1 -10 -4 -18 -13
-9 -8 -20 -13 -25 -10 -5 4 -9 2 -9 -3 0 -4 -18 -18 -40 -31 -22 -12 -40 -19
-40 -15 0 4 -8 -2 -18 -12 -9 -11 -36 -32 -60 -47 -47 -31 -56 -38 -152 -119
-135 -114 -268 -304 -320 -455 -21 -64 -23 -104 -3 -103 4 1 32 33 61 74 84
116 304 322 315 294 4 -8 6 -7 6 4 1 19 34 41 45 31 3 -3 6 1 6 9 0 15 56 46
73 40 4 -1 7 5 7 13 0 13 6 17 26 14 4 0 10 4 13 9 9 15 88 52 95 45 3 -4 6
-1 6 6 0 7 4 9 10 6 5 -3 10 -1 10 5 0 7 7 10 15 6 8 -3 15 -1 15 4 0 5 12 13
28 16 15 4 37 13 49 21 12 8 35 15 52 15 17 1 31 5 31 11 0 5 7 7 15 3 8 -3
15 -1 15 4 0 6 9 10 19 10 11 0 23 5 26 11 4 6 13 8 20 5 7 -2 17 0 23 6 5 5
28 11 51 11 22 1 41 6 41 11 0 4 13 6 30 4 16 -2 31 -1 32 4 3 9 37 15 193 35
165 20 547 23 553 4 5 -14 42 -15 42 0 0 12 225 3 245 -10 6 -3 51 -7 100 -8
50 -1 126 -4 170 -7 44 -3 116 -7 159 -10 43 -2 82 -9 85 -14 3 -5 40 -9 81
-9 71 0 170 -6 270 -16 25 -3 88 -8 140 -12 57 -5 100 -13 108 -21 16 -16 42
-19 42 -4 0 16 67 12 84 -5 17 -18 53 -20 58 -4 5 14 78 3 78 -11 0 -13 33
-13 45 -1 6 5 30 5 60 0 28 -5 79 -11 115 -12 154 -8 223 -16 231 -29 7 -10 9
-10 9 -1 0 9 16 11 63 6 34 -3 64 -9 67 -13 3 -3 34 -7 70 -8 36 0 94 -3 130
-5 36 -3 105 -8 154 -11 49 -3 92 -9 95 -14 3 -4 42 -8 86 -8 159 -1 256 -10
266 -25 6 -10 9 -11 9 -1 0 10 17 11 78 6 42 -4 78 -10 80 -15 2 -4 39 -5 83
-2 52 3 84 1 93 -6 9 -8 35 -10 78 -5 47 5 73 2 102 -10 44 -18 76 -21 76 -5
0 11 105 3 125 -10 6 -3 62 -7 125 -7 63 -1 162 -4 220 -7 58 -3 173 -8 255
-12 83 -4 152 -10 155 -14 3 -3 63 -6 134 -6 95 0 130 -3 134 -12 5 -16 92
-18 92 -2 0 12 195 3 215 -10 6 -3 87 -7 180 -7 386 -4 634 -12 693 -24 37 -8
67 -9 72 -4 5 5 140 6 322 1 172 -4 540 -9 817 -10 543 -2 509 -5 526 48 11
33 4 283 -8 302 -4 7 -7 27 -7 45 1 18 -3 67 -9 108 -6 41 -12 110 -15 152 -2
42 -7 82 -11 87 -3 6 -6 27 -6 48 0 62 -15 227 -23 244 -4 10 -28 28 -54 40
-26 13 -48 27 -50 30 -1 3 -16 3 -32 1 -18 -3 -30 0 -30 7 0 7 -13 9 -38 5
-28 -4 -43 -2 -55 10 -18 19 -37 21 -37 5 0 -14 -77 -4 -97 13 -9 8 -13 7 -13
-2 0 -8 -8 -10 -22 -6 -13 3 -61 11 -108 17 -48 6 -93 18 -102 27 -11 9 -18
11 -18 4 0 -16 -16 -15 -33 2 -8 9 -24 12 -36 9 -12 -3 -21 -1 -21 6 0 7 -9 9
-25 5 -16 -4 -25 -2 -25 6 0 6 -4 8 -10 5 -12 -7 -120 25 -120 36 0 4 -9 5
-20 2 -11 -3 -20 0 -20 6 0 5 -7 8 -15 5 -8 -4 -15 -1 -15 6 0 6 -4 9 -9 6
-10 -7 -61 16 -61 27 0 5 -4 5 -10 2 -11 -7 -110 36 -110 47 0 4 -6 5 -14 2
-7 -3 -22 3 -31 13 -10 10 -20 16 -22 14 -7 -6 -63 21 -63 31 0 5 -4 6 -10 3
-5 -3 -10 -3 -10 2 0 4 -27 19 -60 31 -33 13 -60 27 -60 31 0 5 -18 16 -40 26
-22 10 -40 24 -40 32 0 8 -4 12 -10 8 -13 -8 -50 17 -50 35 0 13 -1 13 -10 0
-7 -11 -10 -11 -10 -2 0 7 -4 11 -9 8 -5 -4 -11 -3 -13 1 -3 8 -74 56 -160
109 -26 16 -48 36 -48 44 0 13 -1 13 -10 0 -5 -8 -10 -10 -10 -4 0 6 -18 19
-40 29 -23 10 -51 27 -63 37 -12 9 -26 21 -32 26 -5 4 -14 8 -18 9 -25 1 -127
60 -127 73 0 13 -1 13 -10 0 -8 -13 -10 -12 -10 3 0 10 -4 16 -9 12 -10 -6
-84 25 -89 38 -2 4 -10 7 -18 7 -8 0 -14 5 -14 11 0 5 -4 8 -9 4 -5 -3 -12 -1
-16 5 -4 6 -11 8 -16 5 -5 -4 -9 -1 -9 4 0 6 -3 10 -7 9 -14 -4 -83 23 -83 32
0 5 -7 7 -15 4 -8 -4 -15 -1 -15 6 0 6 -4 9 -9 5 -5 -3 -12 -1 -16 5 -4 6 -11
8 -16 5 -5 -4 -12 1 -15 9 -3 9 -10 13 -15 10 -15 -9 -140 36 -133 48 4 6 -1
8 -15 3 -13 -4 -21 -2 -21 5 0 7 -8 9 -20 5 -11 -4 -20 -2 -20 4 0 6 -6 8 -13
5 -8 -3 -34 2 -58 10 -24 9 -52 16 -61 16 -10 0 -18 4 -18 9 0 4 -11 6 -25 3
-15 -2 -25 0 -25 8 0 7 -8 9 -20 5 -11 -3 -25 -3 -32 2 -7 4 -22 9 -33 11 -11
1 -41 5 -67 8 -27 3 -48 10 -48 14 0 5 -16 6 -35 3 -19 -3 -42 -2 -52 2 -10 3
-42 8 -71 9 -32 2 -58 9 -64 17 -7 10 -11 11 -14 2 -5 -12 -116 -9 -154 4 -25
8 -968 9 -998 1z m966 -218 c3 -7 26 -9 73 -4 46 4 69 3 69 -4 0 -6 20 -10 48
-10 70 2 215 -19 220 -31 1 -4 16 -5 32 -3 23 3 30 0 30 -12 0 -19 16 -21 24
-3 3 8 9 6 21 -8 14 -17 17 -18 26 -5 8 13 11 13 22 0 6 -9 20 -14 30 -12 9 2
17 -1 17 -6 0 -5 11 -7 25 -4 14 2 25 0 25 -4 0 -5 12 -10 27 -11 15 0 32 -7
37 -15 6 -8 19 -12 29 -10 9 2 17 -1 17 -7 0 -6 6 -8 14 -5 8 3 24 -4 35 -15
12 -12 21 -17 21 -12 0 5 27 -4 60 -20 33 -16 60 -34 60 -40 0 -5 4 -8 9 -4 5
3 16 -2 25 -10 8 -9 17 -15 18 -14 11 7 48 -15 48 -28 0 -9 3 -14 6 -10 8 7
64 -20 64 -31 0 -4 14 -16 30 -25 17 -10 30 -25 30 -33 0 -8 4 -13 9 -12 18 6
102 -99 139 -171 35 -70 37 -81 37 -165 0 -74 -5 -102 -24 -148 -14 -32 -28
-58 -33 -58 -4 0 -8 -7 -8 -15 0 -14 -38 -41 -52 -37 -5 1 -8 -3 -8 -9 0 -8
-19 -9 -60 -4 -43 5 -65 3 -76 -5 -11 -10 -42 -11 -114 -7 -55 3 -100 2 -102
-3 -4 -11 -181 -16 -198 -5 -7 4 -15 3 -19 -3 -3 -5 -79 -12 -171 -16 -91 -4
-184 -9 -207 -12 -29 -4 -43 -2 -43 5 0 13 -42 15 -55 2 -15 -14 -165 -25
-165 -12 0 14 -67 15 -72 1 -5 -14 -148 -26 -148 -11 0 15 -67 14 -72 -1 -3
-9 -36 -14 -109 -15 -57 -1 -156 -5 -219 -9 -179 -10 -335 -17 -460 -21 -63
-2 -154 -6 -202 -9 -62 -5 -88 -3 -88 5 0 18 -67 13 -74 -6 -6 -14 -19 -15
-111 -10 -69 5 -106 3 -111 -4 -4 -6 -46 -10 -108 -10 -156 1 -311 -5 -322
-11 -14 -9 -198 -14 -211 -5 -6 4 -13 3 -15 -2 -3 -8 -279 -26 -396 -26 -44 1
-62 14 -62 47 0 13 80 117 132 172 7 7 35 39 62 70 27 30 53 53 59 49 5 -3 7
-2 4 4 -8 13 107 125 118 115 5 -4 5 -2 2 4 -9 15 228 240 307 293 12 8 26 19
31 25 22 25 68 55 76 50 5 -3 9 3 9 12 0 10 3 14 7 11 3 -4 11 0 17 8 6 7 18
15 26 17 15 3 30 13 57 38 32 29 116 79 125 74 4 -3 8 -1 8 4 0 13 78 54 90
47 5 -3 10 -2 10 4 0 6 11 13 25 17 14 3 25 11 25 17 0 6 3 7 7 4 3 -4 11 -3
17 2 16 13 126 52 126 45 0 -4 6 -1 14 5 7 6 21 9 30 5 9 -3 16 -1 16 6 0 6
10 10 23 9 12 -1 30 1 40 6 10 4 31 5 48 1 16 -3 28 -2 25 3 -3 5 15 11 40 13
25 2 48 -1 51 -5 3 -5 8 -5 12 0 9 15 99 24 107 12 4 -7 9 -8 13 -1 9 15 101
27 101 13 0 -16 39 -13 56 4 17 17 114 21 114 5 0 -5 11 -10 25 -10 14 0 25 4
25 9 0 16 27 17 345 14 212 -1 311 -6 313 -13z"/>
<path d="M1405 1176 c-155 -39 -290 -149 -365 -297 -49 -96 -64 -163 -64 -284
0 -97 4 -120 30 -195 54 -153 157 -275 285 -337 90 -44 159 -57 276 -51 119 6
197 35 293 107 284 214 310 650 55 906 -112 113 -236 166 -385 164 -41 0 -97
-6 -125 -13z m236 -181 c272 -94 339 -517 114 -724 -69 -64 -124 -85 -220 -86
-71 0 -88 4 -147 33 -293 144 -288 623 7 763 48 23 74 29 131 29 39 0 90 -7
115 -15z"/>
<path d="M3680 1183 c-168 -28 -330 -150 -404 -306 -146 -306 -25 -673 271
-819 84 -42 90 -43 200 -47 100 -3 123 0 197 23 100 31 194 91 246 157 35 45
57 86 48 93 -1 2 -36 22 -77 46 l-75 43 -15 -24 c-8 -13 -38 -47 -67 -76 -43
-43 -65 -56 -124 -74 -159 -48 -306 11 -402 161 -142 222 -46 556 181 635 59
20 166 19 232 -2 54 -17 134 -85 170 -142 l15 -24 72 48 c40 26 72 53 72 59 0
39 -112 153 -190 195 -93 50 -241 72 -350 54z"/>
<path d="M6801 1179 c-66 -13 -161 -62 -205 -105 -21 -22 -50 -64 -65 -94 -35
-74 -37 -213 -4 -275 49 -93 115 -129 370 -200 197 -56 263 -101 263 -183 0
-49 -25 -89 -73 -114 -37 -20 -56 -23 -152 -22 -99 0 -119 4 -197 33 -48 18
-112 50 -142 72 l-56 40 -42 -85 c-49 -99 -53 -89 62 -150 184 -97 433 -120
605 -55 68 25 146 95 176 156 33 68 34 218 2 279 -52 98 -134 146 -351 204
-81 22 -160 45 -177 52 -121 46 -149 159 -60 237 75 65 233 64 370 -4 39 -19
80 -42 92 -50 21 -16 22 -15 62 57 22 40 41 78 41 84 0 19 -153 93 -236 114
-81 21 -203 25 -283 9z"/>
<path d="M0 1095 l0 -85 195 0 195 0 0 -500 0 -500 95 0 95 0 0 500 0 500 190
0 190 0 0 85 0 85 -480 0 -480 0 0 -85z"/>
<path d="M2280 596 l0 -586 95 0 95 0 0 204 0 205 203 3 c198 3 203 4 254 30
267 141 268 544 1 689 l-63 34 -292 3 -293 3 0 -585z m527 403 c38 -14 81 -56
105 -103 16 -31 19 -54 16 -112 -3 -61 -8 -80 -33 -116 -50 -71 -75 -78 -262
-78 l-163 0 0 210 0 210 154 0 c85 0 167 -5 183 -11z"/>
<path d="M4488 607 c-126 -315 -228 -578 -228 -585 0 -9 29 -12 99 -12 l100 0
19 53 c11 28 39 100 62 160 l41 107 218 0 218 0 62 -160 63 -160 99 0 c60 0
99 4 99 10 0 6 -102 269 -227 585 l-226 575 -86 0 -86 0 -227 -573z m315 -135
c-97 -1 -178 -1 -180 2 -4 3 120 333 164 436 l15 35 88 -235 88 -235 -175 -3z"/>
<path d="M5480 596 l0 -586 95 0 95 0 0 205 0 205 128 0 127 0 126 -203 126
-202 106 -3 c70 -2 107 1 107 8 0 6 -59 105 -131 221 -71 116 -129 212 -127
214 2 1 18 10 36 19 122 62 202 240 174 388 -23 125 -98 229 -203 285 l-54 28
-302 3 -303 3 0 -585z m559 394 c108 -54 144 -206 75 -316 -48 -77 -70 -84
-271 -84 l-173 0 0 210 0 210 165 0 c145 0 171 -2 204 -20z"/>
<path d="M7530 599 l0 -580 358 3 357 3 73 34 c130 61 178 140 170 283 -3 68
-10 93 -34 137 -29 55 -85 105 -137 123 l-27 10 39 28 c76 55 111 132 111 241
0 123 -57 226 -152 273 l-52 26 -353 0 -353 0 0 -581z m595 325 c24 -16 45
-61 45 -96 0 -11 -7 -35 -16 -53 -24 -52 -70 -65 -224 -65 l-130 0 0 115 0
115 150 0 c120 0 156 -3 175 -16z m33 -450 c50 -35 66 -112 35 -165 -30 -51
-64 -59 -237 -59 l-156 0 0 120 0 120 168 0 c136 0 172 -3 190 -16z"/>
<path d="M8640 600 l0 -580 135 0 135 0 0 235 0 235 225 0 225 0 0 -235 0
-235 140 0 140 0 0 580 0 580 -140 0 -140 0 0 -225 0 -225 -225 0 -225 0 0
225 0 225 -135 0 -135 0 0 -580z"/>
</g>
</svg>
