<?xml version="1.0" standalone="no"?>
<!DOCTYPE svg PUBLIC "-//W3C//DTD SVG 20010904//EN"
 "http://www.w3.org/TR/2001/REC-SVG-20010904/DTD/svg10.dtd">
<svg version="1.0" xmlns="http://www.w3.org/2000/svg"
 width="1143.000000pt" height="420.000000pt" viewBox="0 0 1143.000000 420.000000"
 preserveAspectRatio="xMidYMid meet">
<metadata>
Created by potrace 1.15, written by Peter Selinger 2001-2017
</metadata>
<g transform="translate(0.000000,420.000000) scale(0.100000,-0.100000)"
fill="" stroke="none">
<path d="M5985 4023 c-556 -27 -1093 -193 -1655 -510 -316 -179 -678 -401
-770 -473 -58 -45 -142 -88 -205 -104 -90 -23 -215 -41 -590 -86 -708 -84
-841 -100 -890 -106 -27 -3 -141 -21 -253 -40 -629 -108 -1080 -289 -1341
-539 -110 -105 -211 -255 -197 -291 13 -35 37 -25 112 45 334 311 891 500
1599 542 397 23 867 5 2600 -101 2160 -132 3824 -188 6061 -206 l861 -7 16 24
c35 56 32 131 -23 486 -17 106 -30 218 -30 248 0 106 -34 146 -143 165 -28 5
-137 17 -242 25 -412 33 -600 62 -880 135 -245 64 -452 139 -700 253 -290 133
-471 205 -701 282 -483 160 -899 232 -1460 255 -222 9 -1012 11 -1169 3z
m1250 -194 c544 -42 941 -139 1212 -297 222 -130 290 -293 187 -444 -49 -70
-58 -72 -574 -88 -173 -6 -538 -19 -810 -30 -272 -11 -630 -24 -795 -30 -165
-6 -586 -22 -935 -35 -349 -13 -779 -29 -955 -36 -176 -6 -396 -14 -490 -18
-225 -9 -240 1 -127 95 585 485 1190 795 1650 843 504 54 1230 72 1637 40z"/>
<path d="M1761 1515 c-305 -67 -529 -380 -508 -710 12 -180 77 -326 202 -450
132 -133 256 -185 438 -185 184 0 310 53 443 185 90 89 129 152 170 270 25 72
28 94 29 215 0 150 -11 203 -69 321 -135 275 -417 416 -705 354z m224 -201
c195 -50 325 -234 325 -459 0 -159 -50 -286 -150 -379 -91 -84 -135 -101 -260
-101 -93 0 -111 3 -163 27 -158 74 -257 244 -257 443 0 228 129 418 320 469
72 19 113 19 185 0z"/>
<path d="M4350 1515 c-229 -43 -415 -219 -492 -465 -33 -106 -33 -282 1 -390
73 -236 235 -408 446 -472 83 -26 229 -30 315 -9 79 19 206 81 268 130 52 41
137 156 127 171 -6 9 -165 100 -175 100 -4 0 -19 -17 -33 -39 -140 -211 -426
-236 -607 -51 -95 97 -140 212 -140 362 0 202 95 364 259 441 59 28 75 31 156
31 68 -1 104 -6 147 -23 67 -26 151 -97 179 -152 l19 -39 90 60 90 60 -31 50
c-62 100 -190 193 -310 225 -82 22 -222 27 -309 10z"/>
<path d="M7975 1514 c-153 -34 -268 -125 -315 -251 -33 -87 -31 -215 5 -288
51 -105 134 -153 393 -226 253 -72 321 -113 337 -202 12 -61 -24 -120 -93
-154 -133 -65 -397 -17 -564 102 -27 20 -53 33 -59 30 -5 -4 -30 -46 -54 -95
l-44 -89 65 -41 c147 -93 294 -133 489 -134 241 -1 391 68 462 212 26 52 28
66 28 172 0 109 -2 118 -30 169 -58 105 -150 155 -412 226 -258 70 -315 107
-315 209 0 70 29 114 102 152 28 15 57 19 145 19 94 -1 121 -5 184 -27 41 -15
98 -43 126 -63 28 -19 54 -35 57 -35 4 0 28 39 54 87 l47 86 -24 20 c-38 30
-147 83 -224 107 -94 29 -263 36 -360 14z"/>
<path d="M120 1420 l0 -100 225 0 225 0 0 -575 0 -575 110 0 110 0 0 575 0
575 220 0 220 0 0 100 0 100 -555 0 -555 0 0 -100z"/>
<path d="M2750 845 l0 -675 110 0 110 0 0 234 0 234 228 4 c222 3 228 4 284
30 112 52 198 161 233 293 59 228 -76 475 -294 539 -45 13 -111 16 -363 16
l-308 0 0 -675z m629 455 c48 -24 95 -79 110 -129 6 -21 11 -67 11 -103 0 -78
-34 -155 -88 -196 l-35 -27 -204 -3 -203 -3 0 240 0 241 185 0 c165 0 190 -2
224 -20z"/>
<path d="M5567 1513 c-11 -17 -527 -1325 -527 -1334 0 -6 44 -9 116 -7 l116 3
34 90 c19 50 51 132 70 183 l36 92 252 0 251 0 71 -183 71 -182 117 -3 c64 -1
116 1 116 5 0 4 -119 307 -263 673 l-263 665 -96 3 c-53 1 -99 -1 -101 -5z
m202 -537 c56 -148 99 -271 97 -273 -1 -2 -95 -2 -208 -1 l-205 3 105 272 c58
150 107 272 108 270 1 -1 48 -123 103 -271z"/>
<path d="M6450 845 l0 -675 110 0 110 0 0 235 0 235 148 0 147 0 145 -235 145
-234 123 -1 c73 0 122 4 122 10 0 5 -69 121 -153 257 l-153 247 45 22 c53 24
129 102 160 162 46 91 63 215 40 311 -25 109 -103 220 -196 279 -91 58 -124
62 -475 62 l-318 0 0 -675z m655 451 c71 -42 116 -124 117 -211 1 -68 -16
-124 -51 -172 -49 -68 -71 -73 -300 -73 l-201 0 0 240 0 240 197 0 c190 0 198
-1 238 -24z"/>
<path d="M8800 850 l0 -670 380 0 c407 0 446 4 546 51 77 36 130 88 162 158
35 74 36 197 3 283 -27 71 -93 140 -162 173 -42 19 -47 24 -31 29 32 10 111
101 133 153 79 183 -13 416 -188 479 -30 10 -128 13 -440 14 l-403 0 0 -670z
m706 358 c30 -33 34 -44 34 -93 0 -49 -4 -60 -34 -93 l-34 -37 -176 -3 -176
-3 0 136 0 137 176 -4 176 -3 34 -37z m13 -496 c68 -34 93 -137 48 -203 -37
-55 -53 -59 -259 -59 l-188 0 0 140 0 140 183 0 c154 0 187 -3 216 -18z"/>
<path d="M10080 850 l0 -670 160 0 160 0 0 270 0 270 260 0 260 0 0 -270 0
-270 160 0 160 0 0 670 0 670 -160 0 -160 0 0 -260 0 -260 -260 0 -260 0 0
260 0 260 -160 0 -160 0 0 -670z"/>
</g>
</svg>
